<svg width="26" height="26" viewBox="0 0 26 26" fill="none" xmlns="http://www.w3.org/2000/svg">
<mask id="mask0_3226_15980" style="mask-type:luminance" maskUnits="userSpaceOnUse" x="0" y="0" width="26" height="26">
<path d="M11.8 3.3999V10.5999C11.8 11.9259 9.382 12.9999 6.4 12.9999C3.418 12.9999 1 11.9259 1 10.5999V3.3999" stroke="white" stroke-width="1.4" stroke-linecap="round" stroke-linejoin="round"/>
<path d="M11.8 7C11.8 8.326 9.382 9.4 6.4 9.4C3.418 9.4 1 8.326 1 7" stroke="white" stroke-width="1.4" stroke-linecap="round" stroke-linejoin="round"/>
<path d="M11.8 3.4C11.8 4.726 9.382 5.8 6.4 5.8C3.418 5.8 1 4.726 1 3.4C1 2.074 3.418 1 6.4 1C9.382 1 11.8 2.074 11.8 3.4Z" fill="white" stroke="white" stroke-width="1.4" stroke-linecap="round" stroke-linejoin="round"/>
<path d="M17.7992 2.2002H21.3992C22.0357 2.2002 22.6462 2.45305 23.0963 2.90314C23.5464 3.35323 23.7992 3.96368 23.7992 4.60019V8.20019M8.19922 23.8002H4.59922C3.9627 23.8002 3.35225 23.5473 2.90216 23.0972C2.45208 22.6472 2.19922 22.0367 2.19922 21.4002V17.8002M19.5992 21.4002V25.0002M23.1992 25.0002H15.9992" stroke="white" stroke-width="1.4" stroke-linecap="round" stroke-linejoin="round"/>
<path d="M24.9992 21.4002V14.2002H14.1992V21.4002H24.9992Z" fill="white" stroke="white" stroke-width="1.4" stroke-linecap="round" stroke-linejoin="round"/>
</mask>
<g mask="url(#mask0_3226_15980)">
<path d="M-1.40039 -1.3999H27.3996V27.4001H-1.40039V-1.3999Z" fill="#A7A4A2"/>
</g>
</svg>
