<svg width="24" height="24" viewBox="0 0 24 24" fill="none" xmlns="http://www.w3.org/2000/svg">
<path fill-rule="evenodd" clip-rule="evenodd" d="M9 10.25C9 10.5261 9.22386 10.75 9.5 10.75H15.2929L13.1464 12.8964C12.9512 13.0917 12.9512 13.4083 13.1464 13.6036C13.3417 13.7988 13.6583 13.7988 13.8536 13.6036L16.8536 10.6036C17.0488 10.4083 17.0488 10.0917 16.8536 9.89645L13.8536 6.89645C13.6583 6.70118 13.3417 6.70118 13.1464 6.89645C12.9512 7.09171 12.9512 7.40829 13.1464 7.60355L15.2929 9.75H9.5C9.22386 9.75 9 9.97386 9 10.25Z" fill="#070605"/>
<path fill-rule="evenodd" clip-rule="evenodd" d="M5.25 22.5C4.83579 22.5 4.5 22.1642 4.5 21.75L4.5 2.25C4.5 1.83579 4.83579 1.5 5.25 1.5C5.66421 1.5 6 1.83579 6 2.25L6 21.75C6 22.1642 5.66421 22.5 5.25 22.5Z" fill="#070605"/>
</svg>
