<svg width="16" height="21" viewBox="0 0 16 21" fill="none" xmlns="http://www.w3.org/2000/svg">
<path fill-rule="evenodd" clip-rule="evenodd" d="M12.5 18.8276C12.2239 18.8276 12 18.5471 12 18.201L12 1.90764C12 1.56154 12.2239 1.28097 12.5 1.28097C12.7761 1.28097 13 1.56154 13 1.90764V18.201C13 18.5471 12.7761 18.8276 12.5 18.8276Z" fill="#504945"/>
<path fill-rule="evenodd" clip-rule="evenodd" d="M10 9.16797C10 9.44411 9.77614 9.66797 9.5 9.66797H3.70711L5.85355 11.8144C6.04882 12.0097 6.04882 12.3263 5.85355 12.5215C5.65829 12.7168 5.34171 12.7168 5.14645 12.5215L2.14645 9.52152C1.95118 9.32626 1.95118 9.00968 2.14645 8.81442L5.14645 5.81442C5.34171 5.61915 5.65829 5.61915 5.85355 5.81442C6.04882 6.00968 6.04882 6.32626 5.85355 6.52152L3.70711 8.66797H9.5C9.77614 8.66797 10 8.89183 10 9.16797Z" fill="#504945"/>
</svg>
