<svg width="24" height="24" viewBox="0 0 24 24" fill="none" xmlns="http://www.w3.org/2000/svg">
<path d="M12.7327 18.8592C12.5849 18.8592 12.4556 18.8221 12.3264 18.7665L5.47472 14.9872C5.34544 14.9131 5.2531 14.8204 5.17923 14.7093C5.10536 14.5981 5.06842 14.4499 5.06842 14.3202V8.18799L3.42476 9.09578C3.27702 9.15136 3.18468 9.26252 3.11081 9.37367C3.03694 9.50336 3 9.63304 3 9.76273V17.5623C3 17.692 3.03694 17.8402 3.11081 17.9514C3.18468 18.0625 3.27702 18.1737 3.4063 18.2293L10.2579 21.9901C10.3872 22.0642 10.5165 22.0828 10.6642 22.0828C10.812 22.0828 10.9413 22.0457 11.0705 21.9901L17.9222 18.2293C18.0514 18.1552 18.1438 18.0625 18.2177 17.9514C18.2915 17.8402 18.3285 17.692 18.3285 17.5623V15.8764L13.1205 18.748C13.0097 18.8221 12.8619 18.8592 12.7327 18.8592Z" fill="#A7A4A2"/>
<path d="M20.5077 4.90906C20.4338 4.7979 20.3415 4.70527 20.2307 4.63116L13.7484 1.09263C13.6376 1.03705 13.5083 1 13.379 1C13.2498 1 13.1205 1.03705 13.0097 1.09263L6.50892 4.64969C6.39811 4.70527 6.28731 4.81643 6.2319 4.92759C6.15803 5.03874 6.12109 5.16843 6.12109 5.29811V6.89138V12.6716C6.12109 12.8013 6.15803 12.931 6.2319 13.0421C6.30577 13.1533 6.39811 13.2459 6.50892 13.32L12.9912 16.8771C13.102 16.9327 13.2313 16.9697 13.3606 16.9697C13.4898 16.9697 13.6191 16.9327 13.7299 16.8771L18.6609 14.1537L20.2122 13.3015C20.323 13.2459 20.4338 13.1533 20.4892 13.0236C20.5631 12.9124 20.6 12.7828 20.6 12.6531V5.27959C20.6 5.1499 20.5631 5.02022 20.5077 4.90906Z" fill="#A7A4A2"/>
</svg>
