<svg width="24" height="24" viewBox="0 0 24 24" fill="none" xmlns="http://www.w3.org/2000/svg">
<path fill-rule="evenodd" clip-rule="evenodd" d="M10.5 21C10.5 21 9 21 9 19.5C9 18 10.5 13.5 16.5 13.5C22.5 13.5 24 18 24 19.5C24 21 22.5 21 22.5 21H10.5Z" fill="#A7A4A2"/>
<path fill-rule="evenodd" clip-rule="evenodd" d="M16.5 12C18.9853 12 21 9.98528 21 7.5C21 5.01472 18.9853 3 16.5 3C14.0147 3 12 5.01472 12 7.5C12 9.98528 14.0147 12 16.5 12Z" fill="#A7A4A2"/>
<path fill-rule="evenodd" clip-rule="evenodd" d="M7.82454 21C7.61334 20.5739 7.5 20.0687 7.5 19.5C7.5 17.4668 8.51858 15.3758 10.4039 13.9199C9.57914 13.6561 8.61764 13.5 7.5 13.5C1.5 13.5 0 18 0 19.5C0 21 1.5 21 1.5 21H7.82454Z" fill="#A7A4A2"/>
<path fill-rule="evenodd" clip-rule="evenodd" d="M6.75 12C8.82107 12 10.5 10.3211 10.5 8.25C10.5 6.17893 8.82107 4.5 6.75 4.5C4.67893 4.5 3 6.17893 3 8.25C3 10.3211 4.67893 12 6.75 12Z" fill="#A7A4A2"/>
</svg>
