<svg width="16" height="22" viewBox="0 0 16 22" fill="none" xmlns="http://www.w3.org/2000/svg">
<path d="M0.5 7.2305V11C0.5 13.0325 3.935 14.75 8 14.75C12.065 14.75 15.5 13.0325 15.5 11V7.2305C13.9145 8.6195 11.204 9.5 8 9.5C4.796 9.5 2.0855 8.6195 0.5 7.2305ZM8 8C12.1415 8 15.5 6.3215 15.5 4.25C15.5 2.1785 12.1415 0.5 8 0.5C3.8585 0.5 0.5 2.1785 0.5 4.25C0.5 6.3215 3.8585 8 8 8ZM0.5 13.9385V17.75C0.5 19.8875 3.7235 21.5 8 21.5C12.2765 21.5 15.5 19.8875 15.5 17.75V13.9385C13.901 15.3425 11.1665 16.25 8 16.25C4.8335 16.25 2.099 15.341 0.5 13.9385Z" fill="#A7A4A2"/>
</svg>
