<svg width="137" height="36" viewBox="0 0 137 36" fill="none" xmlns="http://www.w3.org/2000/svg">
<g clip-path="url(#clip0_3186_29045)">
<path d="M26.4147 25.9139V10.9938L24.7638 10.0613L14.9582 19.6814L15.6837 31.9751L26.4147 25.9139Z" fill="#C44736"/>
<path d="M12.3819 4L0 10.9938V12.8588L11.2727 22.7958L12.3819 4Z" fill="#C44736"/>
<path d="M0 25.9139L10.731 31.9751L11.0405 26.7298L0 14.7238V25.9139Z" fill="#C44736"/>
<path d="M14.7551 16.2391L14.0328 4L23.9383 9.59503L14.7551 16.2391Z" fill="#C44736"/>
<path d="M51.0213 21.0411C50.4451 22.0812 49.5587 22.9479 48.4507 23.4246C47.3427 23.9447 46.1017 24.0747 44.905 23.8146C43.7084 23.5546 42.6447 22.9046 41.8469 21.9945C41.0491 21.0844 40.6059 19.9576 40.5616 18.7442C40.5173 17.5308 40.8275 16.3607 41.5366 15.3639C42.2015 14.3671 43.2208 13.6304 44.3732 13.2404C45.5255 12.8503 46.7665 12.8503 47.9188 13.2404C49.0712 13.6304 50.0462 14.3671 50.7553 15.3639L52.9714 13.8904C51.952 12.417 50.4894 11.2902 48.8052 10.7268C47.8745 10.4235 46.9438 10.2935 45.9687 10.2935C45.9244 10.2935 45.8357 10.2935 45.7914 10.2935C44.6391 10.2935 43.5754 10.5101 42.6003 10.9002C41.6253 11.2902 40.7832 11.9403 40.0741 12.677C39.3649 13.4137 38.8331 14.2371 38.4342 15.2339C38.1239 16.0573 37.9467 16.9674 37.9023 17.9641C37.9023 18.0941 37.9023 18.2675 37.9023 18.3975C37.9023 18.4408 37.9023 18.4842 37.9023 18.5275C37.9023 18.6142 37.9023 18.6575 37.9023 18.7442C37.9023 18.7875 37.9023 18.8309 37.9023 18.8742C37.9023 18.9176 37.9023 18.9609 37.9023 18.9609C37.9467 19.871 38.1239 20.6944 38.4342 21.5178C38.8331 22.4712 39.3649 23.2946 40.0297 24.0313C40.6059 24.6381 41.315 25.1581 42.1571 25.5481C42.8219 25.9382 43.5754 26.1982 44.3288 26.3715C46.1017 26.7616 47.9188 26.5449 49.5587 25.8082C51.1986 25.0714 52.5282 23.8146 53.3703 22.2545L51.0213 21.0411Z" fill="#C54836"/>
<path d="M54.7316 17.1434H57.2244V26.2631H54.7316V17.1434ZM54.6426 13.9019C54.6426 13.5129 54.7761 13.2103 55.0877 12.9942C55.3993 12.7349 55.7109 12.6484 56.067 12.6484C56.4231 12.6484 56.7347 12.7781 57.0018 12.9942C57.3134 13.2535 57.447 13.5561 57.447 13.9019C57.447 14.2908 57.3134 14.5934 57.0018 14.8095C56.7347 15.0256 56.4231 15.1553 56.067 15.1553C55.7109 15.1553 55.3993 15.0256 55.0877 14.8095C54.7761 14.5502 54.6426 14.2476 54.6426 13.9019Z" fill="#C54836"/>
<path d="M61.7559 17.1469L61.9766 19.7392L61.8883 19.3935C62.1531 18.8319 62.5063 18.3998 62.9477 18.011C63.4332 17.6222 63.8746 17.3197 64.3602 17.1037C64.8457 16.8877 65.243 16.8013 65.552 16.8013L65.4637 19.2207C64.7574 19.1775 64.1395 19.3071 63.6098 19.6096C63.1242 19.8256 62.6828 20.2576 62.418 20.7329C62.1531 21.2513 62.0207 21.7698 62.0207 22.3314V26.263H59.5488V17.1469H61.7559Z" fill="#C54836"/>
<path d="M74.3573 25.4356C73.9568 25.7827 73.4228 26.0431 72.8443 26.2167C72.2658 26.3903 71.6428 26.4771 71.0643 26.4771C70.0408 26.4771 69.1063 26.3035 68.3498 25.9129C67.5488 25.5223 66.9703 24.9582 66.5253 24.2638C66.0803 23.5261 65.9023 22.7015 65.9023 21.7034C65.9023 20.7053 66.1248 19.8373 66.5698 19.1429C67.0593 18.4052 67.6378 17.8844 68.3943 17.4939C69.1508 17.1033 69.9518 16.9297 70.8418 16.9297C71.6428 16.9297 72.3103 17.0165 72.9333 17.2335C73.5563 17.4505 74.0458 17.7108 74.4908 18.058L73.2448 19.6203C73.0223 19.4467 72.7108 19.2731 72.3103 19.0996C71.9543 18.926 71.5093 18.8392 71.0643 18.8392C70.5748 18.8392 70.0853 18.9694 69.6848 19.1863C69.2398 19.4901 68.8838 19.8373 68.6613 20.2713C68.4388 20.7052 68.3053 21.1826 68.3053 21.7034C68.3053 22.2242 68.4388 22.7015 68.6613 23.1355C68.9283 23.5695 69.2398 23.9166 69.6848 24.177C70.1298 24.4374 70.6193 24.5242 71.1978 24.5242C71.5538 24.5242 71.9098 24.4808 72.2213 24.394C72.5328 24.2638 72.8443 24.1336 73.0668 23.96L74.3573 25.4356Z" fill="#C54836"/>
<path d="M74.9727 21.6173C74.9727 20.7063 75.1945 19.882 75.6383 19.1444C76.0821 18.4069 76.7034 17.7995 77.5022 17.4091C78.301 16.9752 79.2329 16.7583 80.2536 16.7583C81.3187 16.7583 82.2062 16.9752 82.9607 17.4091C83.7595 17.8429 84.3364 18.4069 84.7802 19.1444C85.2239 19.882 85.4015 20.7063 85.4015 21.6173C85.4015 22.5284 85.1796 23.3961 84.7802 24.1336C84.3364 24.8712 83.7595 25.4352 82.9607 25.869C82.2062 26.3028 81.2743 26.5198 80.2092 26.5198C79.1886 26.5198 78.301 26.3462 77.5022 25.9558C76.7034 25.5653 76.0821 25.0013 75.6383 24.2638C75.1945 23.4829 74.9727 22.6152 74.9727 21.6173ZM77.5022 21.6607C77.5022 22.1813 77.6353 22.7019 77.8572 23.1358C78.0791 23.5696 78.4341 23.9167 78.8335 24.177C79.2329 24.4373 79.7211 24.5675 80.2092 24.5675C80.7418 24.5675 81.2299 24.4373 81.6293 24.177C82.0287 23.9167 82.3394 23.5696 82.5613 23.1358C82.7832 22.7019 82.9163 22.1813 82.9163 21.6607C82.9163 21.0967 82.7832 20.6195 82.5613 20.1857C82.3394 19.7518 82.0287 19.4047 81.6293 19.1444C81.2299 18.8841 80.7418 18.754 80.2092 18.754C79.6767 18.754 79.2329 18.8841 78.8335 19.1444C78.4341 19.4047 78.1235 19.7518 77.9016 20.1857C77.591 20.6195 77.5022 21.0967 77.5022 21.6607Z" fill="#C54836"/>
<path d="M89.1154 17.1471L89.3377 19.0912L89.2488 18.832C89.56 18.184 90.049 17.7088 90.6714 17.3199C91.3382 16.9311 92.094 16.7583 92.9831 16.7583C93.8723 16.7583 94.5836 17.0175 95.1615 17.4927C95.7394 18.0112 96.0506 18.6592 96.0506 19.4801V26.2197H93.5611V20.3441C93.5611 19.8689 93.4277 19.5233 93.161 19.2641C92.8942 18.9616 92.4941 18.832 91.9606 18.832C91.4716 18.832 91.027 18.9616 90.6269 19.2641C90.2268 19.5665 89.9156 19.9553 89.6933 20.4737C89.4711 20.9922 89.3821 21.5538 89.3821 22.2018V26.2629H86.8926V17.1471H89.1154Z" fill="#C54836"/>
<path d="M97.584 21.6173C97.584 20.7063 97.8059 19.882 98.2497 19.1444C98.6934 18.4069 99.3147 17.7995 100.114 17.4091C100.912 16.9752 101.844 16.7583 102.865 16.7583C103.93 16.7583 104.818 16.9752 105.572 17.4091C106.371 17.8429 106.948 18.4069 107.391 19.1444C107.835 19.882 108.013 20.7063 108.013 21.6173C108.013 22.5284 107.791 23.3961 107.391 24.1336C106.948 24.8712 106.371 25.4352 105.572 25.869C104.818 26.3028 103.886 26.5198 102.821 26.5198C101.8 26.5198 100.912 26.3462 100.114 25.9558C99.3147 25.5653 98.6934 25.0013 98.2497 24.2638C97.8059 23.4829 97.584 22.6152 97.584 21.6173ZM100.069 21.6607C100.069 22.1813 100.202 22.7019 100.424 23.1358C100.646 23.5696 101.001 23.9167 101.4 24.177C101.8 24.4373 102.288 24.5675 102.776 24.5675C103.309 24.5675 103.797 24.4373 104.196 24.177C104.596 23.9167 104.906 23.5696 105.128 23.1358C105.35 22.7019 105.483 22.1813 105.483 21.6607C105.483 21.0967 105.35 20.6195 105.128 20.1857C104.906 19.7518 104.596 19.4047 104.196 19.1444C103.797 18.8841 103.309 18.754 102.776 18.754C102.244 18.754 101.8 18.8841 101.4 19.1444C101.001 19.4047 100.69 19.7518 100.469 20.1857C100.202 20.6195 100.069 21.0967 100.069 21.6607Z" fill="#C54836"/>
<path d="M111.72 17.1478L111.942 19.0054L111.853 18.8758C112.208 18.2278 112.695 17.7094 113.272 17.3206C113.892 16.9318 114.602 16.759 115.4 16.759C115.932 16.759 116.375 16.8454 116.774 16.975C117.173 17.1478 117.483 17.3638 117.749 17.623C118.015 17.9254 118.193 18.271 118.281 18.703L118.148 18.7462C118.547 18.1414 119.035 17.623 119.611 17.2774C120.232 16.8886 120.853 16.7158 121.518 16.7158C122.449 16.7158 123.158 16.975 123.69 17.4934C124.222 18.0118 124.533 18.6598 124.533 19.4374V26.2196H122.094V20.4309C122.094 19.999 122.005 19.6102 121.828 19.351C121.651 19.0486 121.34 18.8758 120.853 18.8758C120.321 18.8758 119.877 19.0486 119.478 19.351C119.079 19.6534 118.813 20.0854 118.592 20.6037C118.37 21.1221 118.281 21.6405 118.281 22.2021V26.2628H115.799V20.4309C115.799 19.999 115.666 19.6102 115.488 19.351C115.311 19.0486 114.956 18.8758 114.469 18.8758C113.937 18.8758 113.493 19.0486 113.139 19.351C112.74 19.6534 112.474 20.0854 112.252 20.6037C112.03 21.1221 111.942 21.6405 111.942 22.2021V26.306H109.459V17.1478H111.72Z" fill="#C54836"/>
<path d="M127.67 30.6726L133.881 17.1436H136.144L130.066 30.6726H127.67ZM130.066 26.3364L125.496 17.1436H128.291L131.974 25.1222L130.066 26.3364Z" fill="#C54836"/>
</g>
<defs>
<clipPath id="clip0_3186_29045">
<rect width="136.2" height="36" fill="white"/>
</clipPath>
</defs>
</svg>
