<svg width="24" height="24" viewBox="0 0 24 24" fill="none" xmlns="http://www.w3.org/2000/svg">
<path d="M17.175 14.8123H6.83625C6.7125 14.8123 6.61125 14.9177 6.61125 15.0467L6.60844 16.453C6.60844 16.5819 6.70969 16.6874 6.83344 16.6874H17.175C17.2987 16.6874 17.4 16.5819 17.4 16.453V15.0467C17.4 14.9177 17.2987 14.8123 17.175 14.8123ZM17.175 17.6249H6.82781C6.70406 17.6249 6.60281 17.7304 6.60281 17.8593L6.6 19.2656C6.6 19.3945 6.70125 19.5 6.825 19.5H17.175C17.2987 19.5 17.4 19.3945 17.4 19.2656V17.8593C17.4 17.7304 17.2987 17.6249 17.175 17.6249ZM17.175 11.9996H6.84188C6.71813 11.9996 6.61688 12.1051 6.61688 12.234L6.61406 13.6403C6.61406 13.7693 6.71531 13.8747 6.83906 13.8747H17.175C17.2987 13.8747 17.4 13.7693 17.4 13.6403V12.234C17.4 12.1051 17.2987 11.9996 17.175 11.9996ZM20.1703 7.92717L12.5175 4.60767C12.353 4.53659 12.1767 4.5 11.9986 4.5C11.8205 4.5 11.6442 4.53659 11.4797 4.60767L3.82969 7.92717C3.32906 8.14691 3 8.6567 3 9.22509V19.2656C3 19.3945 3.10125 19.5 3.225 19.5H5.475C5.59875 19.5 5.7 19.3945 5.7 19.2656V11.9996C5.7 11.484 6.11063 11.0621 6.61688 11.0621H17.3831C17.8894 11.0621 18.3 11.484 18.3 11.9996V19.2656C18.3 19.3945 18.4012 19.5 18.525 19.5H20.775C20.8988 19.5 21 19.3945 21 19.2656V9.22509C21 8.6567 20.6709 8.14691 20.1703 7.92717Z" fill="#A7A4A2"/>
</svg>
